<svg fill="currentColor" xmlns="http://www.w3.org/2000/svg">
<symbol id="filters" width="62" height="60" viewBox="4 0 62 60" >
<g filter="url(#filter0_d_1_12)">
<path d="M53.9665 28L42.8936 28C42.4002 28 42.0001 28.3866 42.0001 28.86L42 38.14C42 38.6135 42.4001 39 42.8935 39L53.9664 39C56.1913 39 58 37.2583 58 35.1178L58 31.8825C58.0002 29.7419 56.1915 28 53.9665 28ZM53.9665 37.2802L44.9791 37.2802C44.3212 37.2802 43.7875 36.7664 43.7875 36.1335L43.7875 30.8665C43.7875 30.2334 44.3213 29.7198 44.9792 29.7198L53.9665 29.7198C55.2057 29.7198 56.2129 30.6901 56.2129 31.8824L56.2129 35.1176C56.2129 36.31 55.2058 37.2802 53.9665 37.2802Z" />
<path d="M23.0014 38.1399C23.0014 38.6135 23.4018 39 23.8951 39L38.1063 39C38.5996 39 39 38.6135 39 38.1399L39.0001 28.8601C39.0001 28.3865 38.5995 28 38.1063 28L23.8938 28C23.4005 28 23.0001 28.3866 23.0001 28.8601L23 38.1399L23.0014 38.1399ZM25.9797 29.7195L36.0224 29.7195C36.6802 29.7195 37.214 30.2333 37.214 30.8662L37.2139 36.1335C37.2139 36.7666 36.68 37.2802 36.0223 37.2802L25.9796 37.2802C25.3218 37.2802 24.7888 36.7664 24.7888 36.1335L24.7888 30.8664C24.789 30.2333 25.3218 29.7195 25.9797 29.7195Z" />
<path d="M19.1062 28L8.03351 28C5.80998 28 4.00005 29.7417 4.00004 31.8823L4.00002 35.1177C4.00001 37.2583 5.80992 39 8.03345 39L19.1061 39C19.5995 39 20 38.6135 20 38.1399L20.0001 28.8601C20.0001 28.3866 19.5988 28 19.1062 28ZM17.0212 37.2803L8.03346 37.2803C6.79567 37.2803 5.78686 36.3101 5.78686 35.1177L5.78688 31.8824C5.78689 30.69 6.79571 29.7198 8.0335 29.7198L17.0213 29.7198C17.6785 29.7198 18.2123 30.2336 18.2123 30.8665L18.2123 36.1336C18.2123 36.7667 17.6784 37.2803 17.0212 37.2803Z" />
<path d="M58.0003 17.8811C58.0003 15.7421 56.1901 14 53.9667 14L42.8938 14C42.4004 14 42.0003 14.3869 42.0003 14.86L42.0002 24.14C42.0002 24.6135 42.4004 25 42.8937 25L53.9665 25C56.1914 25 58.0001 23.2583 58.0001 21.1189L58.0001 17.8811L58.0003 17.8811ZM53.9665 23.28L44.9792 23.28C44.3213 23.28 43.7876 22.7662 43.7876 22.1336L43.7876 16.8667C43.7876 16.2336 44.3214 15.72 44.9793 15.72L53.9666 15.72C55.2058 15.72 56.213 16.6899 56.213 17.8813L56.213 21.119C56.213 22.3101 55.2059 23.28 53.9665 23.28Z" />
<path d="M23.0014 24.14C23.0014 24.6135 23.4018 25 23.8951 25L38.1063 25C38.5996 25 39 24.6135 39 24.14L39.0001 14.86C39.0001 14.3869 38.5995 14 38.1063 14L23.8938 14C23.4005 14 23.0001 14.3869 23.0001 14.86L23 24.14L23.0014 24.14V24.14ZM25.9797 15.7199L36.0224 15.7199C36.6802 15.7199 37.214 16.2335 37.214 16.8665L37.2139 22.1335C37.2139 22.7661 36.68 23.2798 36.0223 23.2798L25.9796 23.2798C25.3218 23.2798 24.7888 22.7661 24.7888 22.1335L24.7888 16.8665C24.789 16.2335 25.3218 15.7199 25.9797 15.7199Z" />
<path d="M20.0001 14.86C20.0001 14.3869 19.5996 14 19.1062 14L8.03351 14C5.80998 14 4.00005 15.7406 4.00004 17.8811L4.00002 21.1189C4.00001 23.2583 5.80992 25 8.03345 25L19.1061 25C19.5995 25 20 24.6135 20 24.14L20.0001 14.86ZM17.0212 23.2801L8.03346 23.2801C6.79567 23.2801 5.78686 22.3102 5.78686 21.1189L5.78688 17.8811C5.78689 16.6898 6.79571 15.7199 8.0335 15.7199L17.0213 15.7199C17.6785 15.7199 18.2123 16.2335 18.2123 16.8665L18.2123 22.1335C18.2123 22.7664 17.6784 23.2801 17.0212 23.2801Z" />
<path d="M58.0003 3.88223C58.0003 1.74214 56.1901 3.67678e-07 53.9667 1.61959e-07L42.8938 -8.62588e-07C42.4004 -9.08237e-07 42.0003 0.386915 42.0003 0.86004L42.0002 10.1398C42.0002 10.6138 42.4004 11 42.8937 11L53.9665 11C56.1914 11 58.0001 9.25844 58.0001 7.11762L58.0001 3.88223L58.0003 3.88223ZM53.9665 9.27992L44.9792 9.27991C44.3213 9.27991 43.7876 8.76702 43.7876 8.13397L43.7876 2.8669C43.7876 2.23384 44.3214 1.72023 44.9793 1.72023L53.9666 1.72023C55.2058 1.72023 56.213 2.69013 56.213 3.88238L56.213 7.11777C56.213 8.31001 55.2059 9.27992 53.9665 9.27992Z" />
<path d="M23.0014 10.1398C23.0014 10.6138 23.4018 11 23.8951 11L38.1063 11C38.5996 11 39 10.6138 39 10.1398L39.0001 0.860041C39.0001 0.386917 38.5995 4.9811e-07 38.1063 4.52479e-07L23.8938 -8.62567e-07C23.4005 -9.08212e-07 23.0001 0.386915 23.0001 0.86004L23 10.1398L23.0014 10.1398ZM25.9797 1.72008L36.0224 1.72008C36.6802 1.72008 37.214 2.2337 37.214 2.86676L37.2139 8.13382C37.2139 8.76688 36.68 9.27977 36.0223 9.27977L25.9796 9.27977C25.3218 9.27977 24.7888 8.76688 24.7888 8.13382L24.7888 2.86675C24.789 2.2337 25.3218 1.72008 25.9797 1.72008Z" />
<path d="M20.0001 0.860041C20.0001 0.386917 19.5996 4.98118e-07 19.1062 4.52465e-07L8.03351 -5.72058e-07C5.80998 -7.77794e-07 4.00005 1.74214 4.00004 3.88223L4.00002 7.11762C4.00001 9.25844 5.80992 11 8.03345 11L19.1061 11C19.5995 11 20 10.6138 20 10.1398L20.0001 0.860041ZM17.0212 9.27992L8.03346 9.27992C6.79567 9.27991 5.78686 8.31001 5.78686 7.11777L5.78688 3.88238C5.78689 2.68999 6.79571 1.72023 8.0335 1.72023L17.0213 1.72023C17.6785 1.72023 18.2123 2.23384 18.2123 2.8669L18.2123 8.13397C18.2123 8.76688 17.6784 9.27992 17.0212 9.27992Z" />
<path d="M23.5982 46.5657L30.7058 51.8267C31.0191 52.0577 31.4705 52.0577 31.7854 51.8268L38.8916 46.5657C39.1977 46.3394 39.3206 45.9478 39.1977 45.5946C39.0762 45.2381 38.7355 45 38.3506 45L24.1375 45C23.7522 45 23.413 45.2382 23.2912 45.5936C23.1694 45.9466 23.2926 46.3382 23.5982 46.5657ZM34.7487 47.4451L32.194 49.336C31.6698 49.7239 30.8205 49.7239 30.2959 49.336L27.7416 47.4451C27.2169 47.0572 27.3258 46.7421 27.9843 46.7421L34.5054 46.7421C35.1645 46.7421 35.2729 47.0572 34.7487 47.4451Z" fill="#A5DEDB"/>
</g>
<defs>
<filter id="filter0_d_1_12" x="0" y="0" width="62.0003" height="60" filterUnits="userSpaceOnUse" color-interpolation-filters="sRGB">
<feFlood flood-opacity="0" result="BackgroundImageFix"/>
<feColorMatrix in="SourceAlpha" type="matrix" values="0 0 0 0 0 0 0 0 0 0 0 0 0 0 0 0 0 0 127 0" result="hardAlpha"/>
<feOffset dy="4"/>
<feGaussianBlur stdDeviation="2"/>
<feComposite in2="hardAlpha" operator="out"/>
<feColorMatrix type="matrix" values="0 0 0 0 0 0 0 0 0 0 0 0 0 0 0 0 0 0 0.25 0"/>
<feBlend mode="normal" in2="BackgroundImageFix" result="effect1_dropShadow_1_12"/>
<feBlend mode="normal" in="SourceGraphic" in2="effect1_dropShadow_1_12" result="shape"/>
</filter>
</defs>
</symbol>
</svg>
